<svg xmlns="http://www.w3.org/2000/svg" width="128" height="128" viewBox="0 0 128 128">
  <path fill="#fff" d="M67,28 L67,100 Q67,102.899 64.95,104.95 Q62.899,107 60,107 L40,107 Q27.988,107 19.494,98.506 Q11,90.012 11,78 Q11,65.988 19.494,57.494 Q27.988,49 40,49 L53,49 L53,28 Q53,25.101 55.05,23.05 Q57.101,21 60,21 Q62.899,21 64.95,23.05 Q67,25.101 67,28 Z M71.173,53.454 Q72.784,46.336 80.197,42.77 Q85.995,39.981 92.968,40.548 Q100.473,41.159 105.6,45.432 Q112,50.765 112,59.4 Q112,67.024 106.369,73.942 Q103.788,77.113 96.213,84 L106,84 Q108.899,84 110.95,86.05 Q113,88.101 113,91 Q113,93.899 110.95,95.95 Q108.899,98 106,98 L78,98 Q74.939,98 72.861,95.753 Q70.892,93.624 71.005,90.726 Q71.119,87.829 73.247,85.861 Q77.172,82.232 83.66,76.459 Q93.122,68.04 95.511,65.105 Q98,62.047 98,59.4 Q98,55.004 91.832,54.502 Q88.643,54.242 86.266,55.386 Q84.946,56.021 84.827,56.546 Q84.187,59.374 81.735,60.921 Q79.282,62.467 76.454,61.827 Q73.626,61.187 72.079,58.735 Q70.533,56.282 71.173,53.454 Z M53,63 L40,63 Q33.787,63 29.393,67.393 Q25,71.787 25,78 Q25,84.213 29.393,88.607 Q33.787,93 40,93 L53,93 L53,63 Z"/>
</svg>
